<?xml version="1.0" encoding="UTF-8" standalone="no"?>
<!-- Created with sK1/UniConvertor (http://sk1project.org/) -->

<svg
   xmlns:dc="http://purl.org/dc/elements/1.1/"
   xmlns:cc="http://creativecommons.org/ns#"
   xmlns:rdf="http://www.w3.org/1999/02/22-rdf-syntax-ns#"
   xmlns:svg="http://www.w3.org/2000/svg"
   xmlns="http://www.w3.org/2000/svg"
   xmlns:sodipodi="http://sodipodi.sourceforge.net/DTD/sodipodi-0.dtd"
   xmlns:inkscape="http://www.inkscape.org/namespaces/inkscape"
   width="595.276pt"
   height="841.89pt"
   viewBox="0 0 595.276 841.89"
   fill-rule="evenodd"
   id="svg2"
   version="1.1"
   inkscape:version="0.48.2 r9819"
   sodipodi:docname="BigTimeEnclosure.svg">
  <metadata
     id="metadata210">
    <rdf:RDF>
      <cc:Work
         rdf:about="">
        <dc:format>image/svg+xml</dc:format>
        <dc:type
           rdf:resource="http://purl.org/dc/dcmitype/StillImage" />
        <dc:title />
      </cc:Work>
    </rdf:RDF>
  </metadata>
  <defs
     id="defs208" />
  <sodipodi:namedview
     pagecolor="#ffffff"
     bordercolor="#666666"
     borderopacity="1"
     objecttolerance="10"
     gridtolerance="10"
     guidetolerance="10"
     inkscape:pageopacity="0"
     inkscape:pageshadow="2"
     inkscape:window-width="1264"
     inkscape:window-height="980"
     id="namedview206"
     showgrid="false"
     inkscape:zoom="1.0000001"
     inkscape:cx="81.058787"
     inkscape:cy="635.00343"
     inkscape:window-x="0"
     inkscape:window-y="0"
     inkscape:window-maximized="1"
     inkscape:current-layer="svg2"
     inkscape:object-paths="true"
     inkscape:snap-bbox="false"
     inkscape:snap-nodes="true"
     inkscape:snap-intersection-paths="true" />
  <path
     inkscape:connector-curvature="0"
     id="path10"
     d="m 170.08357,192.24555 -51.8405,0"
     style="fill:none;stroke:#000000;stroke-width:0.21543308;stroke-linecap:round;stroke-linejoin:round;stroke-miterlimit:4;stroke-dasharray:none" />
  <path
     inkscape:connector-curvature="0"
     id="path12"
     d="m 118.24307,181.44555 51.8405,0"
     style="fill:none;stroke:#000000;stroke-width:0.21543308;stroke-linecap:round;stroke-linejoin:round;stroke-miterlimit:4;stroke-dasharray:none" />
  <path
     inkscape:connector-curvature="0"
     id="path14"
     d="m 115.36307,189.36555 0,-5.04"
     style="fill:none;stroke:#000000;stroke-width:0.21543308;stroke-linecap:round;stroke-linejoin:round;stroke-miterlimit:4;stroke-dasharray:none" />
  <path
     inkscape:connector-curvature="0"
     id="path16"
     d="m 115.36307,40.325548 0,-5.04"
     style="fill:none;stroke:#000000;stroke-width:0.21543308;stroke-linecap:round;stroke-linejoin:round;stroke-miterlimit:4;stroke-dasharray:none" />
  <path
     inkscape:connector-curvature="0"
     id="path18"
     d="m 172.96357,35.285548 0,5.04"
     style="fill:none;stroke:#000000;stroke-width:0.21543308;stroke-linecap:round;stroke-linejoin:round;stroke-miterlimit:4;stroke-dasharray:none" />
  <path
     inkscape:connector-curvature="0"
     id="path20"
     d="m 172.96357,184.32555 0,5.04"
     style="fill:none;stroke:#000000;stroke-width:0.21543308;stroke-linecap:round;stroke-linejoin:round;stroke-miterlimit:4;stroke-dasharray:none" />
  <path
     inkscape:connector-curvature="0"
     id="path22"
     d="m 170.08357,43.205548 -51.8405,0"
     style="fill:none;stroke:#000000;stroke-width:0.21543308;stroke-linecap:round;stroke-linejoin:round;stroke-miterlimit:4;stroke-dasharray:none" />
  <path
     inkscape:connector-curvature="0"
     id="path24"
     d="m 118.24307,32.405548 51.8405,0"
     style="fill:none;stroke:#000000;stroke-width:0.21543308;stroke-linecap:round;stroke-linejoin:round;stroke-miterlimit:4;stroke-dasharray:none" />
  <path
     inkscape:connector-curvature="0"
     id="path36"
     d="m 170.08357,43.205548 c 0.763,0 1.496,-0.304 2.036,-0.844 0.54,-0.54 0.844,-1.272 0.844,-2.036"
     style="fill:none;stroke:#000000;stroke-width:0.21543308;stroke-linecap:round;stroke-linejoin:round;stroke-miterlimit:4;stroke-dasharray:none" />
  <path
     inkscape:connector-curvature="0"
     id="path38"
     d="m 172.96357,35.285548 c 0,-0.764 -0.304,-1.497 -0.844,-2.037 -0.54,-0.54 -1.273,-0.843 -2.036,-0.843"
     style="fill:none;stroke:#000000;stroke-width:0.21543308;stroke-linecap:round;stroke-linejoin:round;stroke-miterlimit:4;stroke-dasharray:none" />
  <path
     inkscape:connector-curvature="0"
     id="path40"
     d="m 115.36307,40.325548 c 0,0.764 0.3033,1.496 0.8434,2.036 0.5402,0.54 1.2727,0.844 2.0366,0.844"
     style="fill:none;stroke:#000000;stroke-width:0.21543308;stroke-linecap:round;stroke-linejoin:round;stroke-miterlimit:4;stroke-dasharray:none" />
  <path
     inkscape:connector-curvature="0"
     id="path42"
     d="m 118.24307,32.405548 c -0.7639,0 -1.4964,0.303 -2.0366,0.843 -0.5401,0.54 -0.8434,1.273 -0.8434,2.037"
     style="fill:none;stroke:#000000;stroke-width:0.21543308;stroke-linecap:round;stroke-linejoin:round;stroke-miterlimit:4;stroke-dasharray:none" />
  <path
     inkscape:connector-curvature="0"
     id="path44"
     d="m 118.24307,181.44555 c -0.7639,0 -1.4964,0.303 -2.0366,0.843 -0.5401,0.541 -0.8434,1.273 -0.8434,2.037"
     style="fill:none;stroke:#000000;stroke-width:0.21543308;stroke-linecap:round;stroke-linejoin:round;stroke-miterlimit:4;stroke-dasharray:none" />
  <path
     inkscape:connector-curvature="0"
     id="path46"
     d="m 115.36307,189.36555 c 0,0.764 0.3033,1.496 0.8434,2.036 0.5402,0.54 1.2727,0.844 2.0366,0.844"
     style="fill:none;stroke:#000000;stroke-width:0.21543308;stroke-linecap:round;stroke-linejoin:round;stroke-miterlimit:4;stroke-dasharray:none" />
  <path
     inkscape:connector-curvature="0"
     id="path48"
     d="m 172.96357,184.32555 c 0,-0.764 -0.304,-1.496 -0.844,-2.037 -0.54,-0.54 -1.273,-0.843 -2.036,-0.843"
     style="fill:none;stroke:#000000;stroke-width:0.21543308;stroke-linecap:round;stroke-linejoin:round;stroke-miterlimit:4;stroke-dasharray:none" />
  <path
     inkscape:connector-curvature="0"
     id="path50"
     d="m 170.08357,192.24555 c 0.763,0 1.496,-0.304 2.036,-0.844 0.54,-0.54 0.844,-1.272 0.844,-2.036"
     style="fill:none;stroke:#000000;stroke-width:0.21543308;stroke-linecap:round;stroke-linejoin:round;stroke-miterlimit:4;stroke-dasharray:none" />
  <path
     id="path56"
     style="fill:none;stroke:#000000;stroke-width:0.21543308;stroke-linecap:round;stroke-linejoin:round;stroke-miterlimit:4;stroke-dasharray:none"
     d="m 356.61202,43.075248 c 0.763,0 1.496,-0.304 2.036,-0.844 0.54,-0.54 0.844,-1.272 0.844,-2.036 m -57.6,0 c 0,0.764 0.303,1.496 0.843,2.036 0.54,0.54 1.273,0.844 2.037,0.844 m 51.84,0 0,0 m 0,0 -51.84,0 m 54.72,-16.148 0,0 m 0,0 0,13.268 m -57.6,-13.268 0,0 m 0,13.268 0,-13.268"
     inkscape:connector-curvature="0" />
  <path
     id="path82"
     style="fill:none;stroke:#000000;stroke-width:0.21543308;stroke-linecap:round;stroke-linejoin:round;stroke-miterlimit:4;stroke-dasharray:none"
     d="m 381.81257,50.276548 10.8,10.8 m 0,102.240002 0,0 m 0,0 -10.8,10.8 m -102.24,-123.840002 102.24,0 m 10.8,10.8 0,0 m 0,0 0,102.240002 m -33.12,10.8 0,0 m 0,0 0,23.347 m -57.6,-23.347 0,0 m 0,23.347 0,-23.347 m 0,0 0,0 m 0,0 -22.32,0 m 102.24,0 0,0 m 0,0 -22.32,0 m -90.72,-10.8 0,-102.240002 m 10.8,113.040002 -10.8,-10.8 m 0,-102.240002 10.8,-10.8"
     inkscape:connector-curvature="0" />
  <path
     style="fill:none;stroke:#000000;stroke-width:0.21543308;stroke-linecap:round;stroke-linejoin:round;stroke-miterlimit:4;stroke-dasharray:none"
     d="m 109.38707,347.65955 0,0 m 0,13.634 0,-13.634"
     id="path90"
     inkscape:connector-curvature="0" />
  <path
     style="fill:none;stroke:#000000;stroke-width:0.21543308;stroke-linecap:round;stroke-linejoin:round;stroke-miterlimit:4;stroke-dasharray:none"
     d="m 102.46487,340.78155 0,0 m 0,0 -13.633196,0"
     id="path96"
     inkscape:connector-curvature="0" />
  <path
     style="fill:none;stroke:#000000;stroke-width:0.21543308;stroke-linecap:round;stroke-linejoin:round;stroke-miterlimit:4;stroke-dasharray:none"
     d="m 220.09057,335.37355 0,0 m 0,0 -3.6,0"
     id="path98"
     inkscape:connector-curvature="0" />
  <path
     style="fill:none;stroke:#000000;stroke-width:0.21543308;stroke-linecap:round;stroke-linejoin:round;stroke-miterlimit:4;stroke-dasharray:none"
     d="m 240.59157,304.73455 0,0 m 0,0 -11.897,0"
     id="path100"
     inkscape:connector-curvature="0" />
  <path
     style="fill:none;stroke:#000000;stroke-width:0.21543308;stroke-linecap:round;stroke-linejoin:round;stroke-miterlimit:4;stroke-dasharray:none"
     d="m 240.59157,294.01155 0,0 m -11.897,0 11.897,0"
     id="path102"
     inkscape:connector-curvature="0" />
  <path
     style="fill:none;stroke:#000000;stroke-width:0.21543308;stroke-linecap:round;stroke-linejoin:round;stroke-miterlimit:4;stroke-dasharray:none"
     d="m 216.31857,283.54855 0,0 m -7.92,0 7.92,0"
     id="path104"
     inkscape:connector-curvature="0" />
  <path
     style="fill:none;stroke:#000000;stroke-width:0.21543308;stroke-linecap:round;stroke-linejoin:round;stroke-miterlimit:4;stroke-dasharray:none"
     d="m 208.39857,257.98155 0,0 m 0,0 0,25.567"
     id="path114"
     inkscape:connector-curvature="0" />
  <path
     style="fill:none;stroke:#000000;stroke-width:0.21543308;stroke-linecap:round;stroke-linejoin:round;stroke-miterlimit:4;stroke-dasharray:none"
     d="m 216.49057,335.37355 0,0 m 0,0 -3.819,3.819"
     id="path120"
     inkscape:connector-curvature="0" />
  <path
     style="fill:none;stroke:#000000;stroke-width:0.21543308;stroke-linecap:round;stroke-linejoin:round;stroke-miterlimit:4;stroke-dasharray:none"
     d="m 223.81057,272.22955 0.58,1.043"
     id="path122"
     inkscape:connector-curvature="0" />
  <path
     id="path130"
     style="fill:none;stroke:#000000;stroke-width:0.21543308;stroke-linecap:round;stroke-linejoin:round;stroke-miterlimit:4;stroke-dasharray:none"
     d="m 392.75057,282.24255 0,36 m 0,-36 0,0 m -113.76,0 113.76,0 m 0,36 -113.76,0 m 0,-36 0,0 m 0,36 0,-36"
     inkscape:connector-curvature="0" />
  <path
     style="fill:none;stroke:#000000;stroke-width:0.21543308;stroke-linejoin:bevel;stroke-miterlimit:4;stroke-dasharray:none"
     d="m 234.16357,112.32555 c 0,-49.706002 -40.295,-90.000002 -90.0005,-90.000002 -49.705496,0 -89.999943,40.294 -89.999943,90.000002 -2.9e-4,49.705 40.293947,90 89.999443,90 49.706,0 90,-40.295 90.001,-90 z"
     id="path132"
     inkscape:connector-curvature="0" />
  <path
     style="fill:none;stroke:#000000;stroke-width:0.21543308;stroke-linecap:round;stroke-linejoin:round;stroke-miterlimit:4;stroke-dasharray:none"
     d="m 301.89202,26.927248 c -36.577,12.355 -61.2,46.661 -61.2,85.268002 0,38.607 24.623,72.913 61.2,85.267"
     id="path142"
     inkscape:connector-curvature="0" />
  <path
     style="fill:none;stroke:#000000;stroke-width:0.21543308;stroke-linecap:round;stroke-linejoin:round;stroke-miterlimit:4;stroke-dasharray:none"
     d="m 359.49257,197.46355 c 36.576,-12.354 61.199,-46.66 61.2,-85.267 0,-38.607002 -24.623,-72.913002 -61.2,-85.268002"
     id="path144"
     inkscape:connector-curvature="0" />
  <path
     style="fill:none;stroke:#000000;stroke-width:0.21543308;stroke-linecap:round;stroke-linejoin:round;stroke-miterlimit:4;stroke-dasharray:none"
     d="m 240.59157,294.01155 c -2.24052,-37.54166 -27.22908,-68.45197 -60.9194,-79.88767 m -57.71886,-0.0396 c -0.16691,0.0561 -0.33514,0.11287 -0.50473,0.17038 -35.455309,12.02258 -60.696906,45.76643 -60.696906,85.11889 0,48.661 38.6782,88.5095 87.317896,89.9597 48.64,1.4502 89.623,-36.0237 92.522,-84.5987"
     id="path146"
     inkscape:connector-curvature="0"
     sodipodi:nodetypes="cccsssc" />
  <path
     style="fill:none;stroke:#000000;stroke-width:0.21543308;stroke-linecap:round;stroke-linejoin:round;stroke-miterlimit:4;stroke-dasharray:none"
     d="m 228.69457,294.01155 c -0.487,-7.076 -1.935,-14.053 -4.304,-20.739"
     id="path148"
     inkscape:connector-curvature="0" />
  <path
     style="fill:none;stroke:#000000;stroke-width:0.21543308;stroke-linecap:round;stroke-linejoin:round;stroke-miterlimit:4;stroke-dasharray:none"
     d="m 220.09057,335.37355 c 4.94,-9.515 7.868,-19.944 8.604,-30.639"
     id="path150"
     inkscape:connector-curvature="0" />
  <path
     style="fill:none;stroke:#000000;stroke-width:0.21543308;stroke-linecap:round;stroke-linejoin:round;stroke-miterlimit:4;stroke-dasharray:none"
     d="m 200.36584,353.72905 c 0.25414,0.0502 0.51686,0.0765 0.78573,0.0765 2.227,0 4.032,-1.805 4.032,-4.032 l 0,0 c 0,-0.17065 -0.0106,-0.33882 -0.0312,-0.50388"
     id="path4222"
     inkscape:connector-curvature="0" />
  <path
     style="fill:none;stroke:#000000;stroke-width:0.21543308;stroke-linecap:round;stroke-linejoin:round;stroke-miterlimit:4;stroke-dasharray:none"
     d="m 203.72558,252.07728 c 0.89079,-0.73955 1.45799,-1.85533 1.45799,-3.10373 l 0,0 c 0,-2.227 -1.805,-4.032 -4.032,-4.032 -0.91214,0 -1.7535,0.30281 -2.42902,0.8134"
     id="path4205"
     inkscape:connector-curvature="0" />
  <path
     style="fill:none;stroke:#000000;stroke-width:0.21543308;stroke-linecap:round;stroke-linejoin:round;stroke-miterlimit:4;stroke-dasharray:none"
     d="m 216.31857,283.54855 c 1.507,0 2.855,-0.939 3.377,-2.353 0.522,-1.414 0.108,-3.004 -1.038,-3.984"
     id="path162"
     inkscape:connector-curvature="0" />
  <path
     style="fill:none;stroke:#000000;stroke-width:0.21543308;stroke-linecap:round;stroke-linejoin:round;stroke-miterlimit:4;stroke-dasharray:none"
     d="m 223.81057,272.22955 c -0.854,-1.069 -2.239,-1.562 -3.576,-1.272 -1.337,0.289 -2.394,1.312 -2.728,2.638 -0.335,1.326 0.111,2.728 1.151,3.616"
     id="path164"
     inkscape:connector-curvature="0" />
  <path
     style="fill:none;stroke:#000000;stroke-width:0.21543308;stroke-linejoin:bevel;stroke-miterlimit:4;stroke-dasharray:none"
     d="m 425.87057,300.24255 c 0,-49.706 -40.294,-90 -90,-90 -49.706,-0.001 -90,40.294 -90,89.999 0,49.706 40.294,90.0005 90,90.0008 49.705,0 90,-40.2938 90,-89.9998 z"
     id="path166"
     inkscape:connector-curvature="0" />
  <path
     style="fill:none;stroke:#000000;stroke-width:0.21543308;stroke-linejoin:bevel;stroke-miterlimit:4;stroke-dasharray:none"
     d="m 289.50257,350.64255 c 0,-2.227 -1.805,-4.032 -4.032,-4.032 -2.227,0 -4.032,1.805 -4.032,4.032 0,2.226 1.805,4.032 4.032,4.032 2.227,0 4.032,-1.806 4.032,-4.032 z"
     id="path168"
     inkscape:connector-curvature="0" />
  <path
     style="fill:none;stroke:#000000;stroke-width:0.21543308;stroke-linejoin:bevel;stroke-miterlimit:4;stroke-dasharray:none"
     d="m 390.30257,350.64255 c 0,-2.227 -1.805,-4.032 -4.032,-4.032 -2.227,0 -4.032,1.805 -4.032,4.032 0,2.226 1.805,4.032 4.032,4.032 2.227,0 4.032,-1.806 4.032,-4.032 z"
     id="path170"
     inkscape:connector-curvature="0" />
  <path
     style="fill:none;stroke:#000000;stroke-width:0.21543308;stroke-linejoin:bevel;stroke-miterlimit:4;stroke-dasharray:none"
     d="m 390.30257,249.84255 c 0,-2.227 -1.805,-4.032 -4.032,-4.032 -2.227,0 -4.032,1.805 -4.032,4.032 0,2.227 1.805,4.032 4.032,4.032 2.227,0 4.032,-1.805 4.032,-4.032 z"
     id="path172"
     inkscape:connector-curvature="0" />
  <path
     style="fill:none;stroke:#000000;stroke-width:0.21543308;stroke-linejoin:bevel;stroke-miterlimit:4;stroke-dasharray:none"
     d="m 289.50257,249.84255 c 0,-2.227 -1.805,-4.032 -4.032,-4.032 -2.227,0 -4.032,1.805 -4.032,4.032 0,2.227 1.805,4.032 4.032,4.032 2.227,0 4.032,-1.805 4.032,-4.032 z"
     id="path174"
     inkscape:connector-curvature="0" />
  <path
     style="fill:none;stroke:#000000;stroke-width:0.21543308;stroke-linecap:round;stroke-linejoin:round;stroke-opacity:1;stroke-miterlimit:4;stroke-dasharray:none"
     d="m 102.46487,340.78155 6.9222,6.878"
     id="path180"
     inkscape:connector-curvature="0" />
  <path
     id="path204"
     style="fill:none;stroke:#000000;stroke-width:0.21543308;stroke-linecap:round;stroke-linejoin:round;stroke-miterlimit:4;stroke-dasharray:none"
     d="m 201.38112,278.50445 c -0.508,-1.425 -1.852,-2.38 -3.364,-2.392 -1.5126,-0.012 -2.871,0.923 -3.4002,2.34 -0.5293,1.417 -0.1165,3.014 1.0332,3.996 m 1.1044,3.786 c 0.417,-1.369 -0.0167,-2.856 -1.1044,-3.786 m 21.264,26.772 c 2.485,0 4.5,-2.015 4.5,-4.5 0,-2.486 -2.015,-4.5 -4.5,-4.5 m -26.0032,32.837 c -1.1294,1.234 -1.4953,2.985 -0.9545,4.568 0.5412,1.583 1.9026,2.744 3.5507,3.028 1.6481,0.284 3.3199,-0.354 4.36,-1.664 m -6.9562,-5.932 c 7.8362,-14.295 9.9252,-31.04 5.8436,-46.823 m 9.0266,13.986 c -0.428,-7.411 -1.909,-14.724 -4.4,-21.716 m -2.961,59.596 c 4.284,-9.065 6.783,-18.87 7.361,-28.88 m -7.361,28.88 0,0 m -0.553,0.889 0.553,-0.889 m 18.494,-37.88 0,0 m 0,0 -11.133,0 m 11.133,9 0,0 m -11.133,0 11.133,0"
     inkscape:connector-curvature="0" />
  <path
     style="fill:none;stroke:#000000;stroke-width:0.21543308;stroke-linecap:round;stroke-linejoin:round;stroke-miterlimit:4;stroke-opacity:1;stroke-dasharray:none"
     d="m 109.39257,237.46817 -7.72357,7.68864"
     id="path4198"
     inkscape:connector-curvature="0" />
  <path
     style="fill:none;stroke:#000000;stroke-width:0.21543308;stroke-linecap:round;stroke-linejoin:round;stroke-miterlimit:4;stroke-opacity:1;stroke-dasharray:none"
     d="m 96.534634,250.2895 -7.69206,7.6918"
     id="path4200"
     inkscape:connector-curvature="0" />
  <path
     style="fill:none;stroke:#000000;stroke-width:0.26929134;stroke-linejoin:bevel;stroke-miterlimit:4;stroke-dasharray:none"
     d="M 127.1094 306.46115 C 126.58682 306.27774 126.02486 306.17801 125.43958 306.17801 C 122.65584 306.17801 120.39959 308.43426 120.39959 311.21801 C 120.39959 311.80329 120.49932 312.36525 120.68273 312.88782 "
     id="path3844"
     transform="matrix(0.80000003,0,0,0.80000003,0,-3.6104905e-5)" />
  <path
     style="fill:none;stroke:#000000;stroke-width:0.21543308;stroke-linecap:round;stroke-linejoin:round;stroke-miterlimit:4;stroke-opacity:1;stroke-dasharray:none"
     d="m 203.73256,252.07147 4.66601,5.91232"
     id="path4207"
     inkscape:connector-curvature="0" />
  <path
     style="fill:none;stroke:#000000;stroke-width:0.21543308;stroke-linecap:round;stroke-linejoin:round;stroke-miterlimit:4;stroke-opacity:1;stroke-dasharray:none"
     d="m 192.17383,237.46192 6.54872,8.29303"
     id="path4209"
     inkscape:connector-curvature="0" />
  <path
     style="fill:none;stroke:#000000;stroke-width:0.21543308;stroke-linecap:round;stroke-linejoin:round;stroke-miterlimit:4;stroke-opacity:1;stroke-dasharray:none"
     d="m 212.65353,342.2313 -7.50113,7.03837"
     id="path4224"
     inkscape:connector-curvature="0" />
  <path
     style="fill:none;stroke:#000000;stroke-width:0.21543308;stroke-linecap:round;stroke-linejoin:round;stroke-miterlimit:4;stroke-opacity:1;stroke-dasharray:none"
     d="m 88.842574,257.9813 -0.0109,82.80025"
     id="path4228"
     inkscape:connector-curvature="0" />
  <path
     style="fill:none;stroke:#000000;stroke-width:0.21543308;stroke-linecap:round;stroke-linejoin:round;stroke-miterlimit:4;stroke-opacity:1;stroke-dasharray:none"
     d="m 212.67157,339.19255 -0.018,3.03875"
     id="path4232"
     inkscape:connector-curvature="0" />
  <path
     style="fill:none;stroke:#000000;stroke-width:0.26929134;stroke-linecap:round;stroke-linejoin:round;stroke-opacity:1;stroke-miterlimit:4;stroke-dasharray:none"
     d="m 136.74071,296.83525 103.48192,-10e-4"
     id="path3812"
     inkscape:connector-curvature="0"
     transform="matrix(0.80000003,0,0,0.80000003,0,-3.6104905e-5)" />
  <path
     id="path56-1"
     style="fill:none;stroke:#000000;stroke-width:0.21543308;stroke-linecap:round;stroke-linejoin:round;stroke-miterlimit:4;stroke-dasharray:none"
     d="m 176.67289,230.23086 c 0.763,0 1.496,-0.304 2.036,-0.844 0.54,-0.54 0.844,-1.272 0.844,-2.036 m -57.6,0 c 0,0.764 0.303,1.496 0.843,2.036 0.54,0.54 1.273,0.844 2.037,0.844 m 51.84,0 0,0 m 0,0 -51.84,0 m 54.83647,-16.1079 -0.11647,13.22793 m -57.6,-13.268 0,0 m 0,13.268 0,-13.268"
     inkscape:connector-curvature="0"
     sodipodi:nodetypes="csccsccccccccccc" />
  <text
     xml:space="preserve"
     style="font-size:20.00000004px;font-style:normal;font-weight:normal;line-height:125%;letter-spacing:0px;word-spacing:0px;fill:#000000;fill-opacity:1;stroke:none;font-family:Sans"
     x="120.20815"
     y="39.432083"
     id="text3167"
     sodipodi:linespacing="125%"
     transform="matrix(0.80000003,0,0,0.80000003,0,-3.6104905e-5)"><tspan
       sodipodi:role="line"
       id="tspan3169"
       x="120.20815"
       y="39.432083" /></text>
  <text
     xml:space="preserve"
     style="font-size:15.00000003px;font-style:normal;font-weight:normal;line-height:125%;letter-spacing:0px;word-spacing:0px;fill:#000000;fill-opacity:1;stroke:none;font-family:Sans"
     x="43.840622"
     y="18.925985"
     id="text3171"
     sodipodi:linespacing="125%"
     transform="matrix(0.80000003,0,0,0.80000003,0,-3.6104905e-5)"><tspan
       sodipodi:role="line"
       id="tspan3173"
       x="43.840622"
       y="18.925985" /></text>
  <text
     xml:space="preserve"
     style="font-size:8px;font-style:normal;font-weight:normal;line-height:125%;letter-spacing:0px;word-spacing:0px;fill:#000000;fill-opacity:1;stroke:none;font-family:Sans"
     x="41.577881"
     y="27.30299"
     id="text3175"
     sodipodi:linespacing="125%"><tspan
       sodipodi:role="line"
       id="tspan3177"
       x="41.577881"
       y="27.30299">Layer 1</tspan></text>
  <text
     xml:space="preserve"
     style="font-size:8px;font-style:normal;font-weight:normal;line-height:125%;letter-spacing:0px;word-spacing:0px;fill:#000000;fill-opacity:1;stroke:none;font-family:Sans"
     x="223.89877"
     y="25.092169"
     id="text3179"
     sodipodi:linespacing="125%"><tspan
       sodipodi:role="line"
       id="tspan3181"
       x="223.89877"
       y="25.092169">Layer 2</tspan></text>
  <text
     xml:space="preserve"
     style="font-size:8px;font-style:normal;font-weight:normal;line-height:125%;letter-spacing:0px;word-spacing:0px;fill:#000000;fill-opacity:1;stroke:none;font-family:Sans"
     x="42.992096"
     y="215.95909"
     id="text3183"
     sodipodi:linespacing="125%"><tspan
       sodipodi:role="line"
       id="tspan3185"
       x="42.992096"
       y="215.95909">Layer 3</tspan></text>
  <text
     xml:space="preserve"
     style="font-size:8px;font-style:normal;font-weight:normal;line-height:125%;letter-spacing:0px;word-spacing:0px;fill:#000000;fill-opacity:1;stroke:none;font-family:Sans"
     x="235.0423"
     y="213.9792"
     id="text3187"
     sodipodi:linespacing="125%"><tspan
       sodipodi:role="line"
       x="235.0423"
       y="213.9792"
       id="tspan3191">Layer 4</tspan></text>
  <text
     xml:space="preserve"
     style="font-size:9.60000038px;font-style:normal;font-weight:normal;line-height:125%;letter-spacing:0px;word-spacing:0px;fill:#000000;fill-opacity:1;stroke:none;font-family:Sans"
     x="40.163666"
     y="40.313751"
     id="text3145"
     sodipodi:linespacing="125%"><tspan
       sodipodi:role="line"
       id="tspan3147"
       x="40.163666"
       y="40.313751">5/32&quot; Thick</tspan></text>
  <text
     xml:space="preserve"
     style="font-size:9.60000038px;font-style:normal;font-weight:normal;line-height:125%;letter-spacing:0px;word-spacing:0px;fill:#000000;fill-opacity:1;stroke:none;font-family:Sans"
     x="41.665367"
     y="227.59746"
     id="text3145-1"
     sodipodi:linespacing="125%"><tspan
       sodipodi:role="line"
       id="tspan3147-7"
       x="41.665367"
       y="227.59746">1/8&quot; Thick</tspan></text>
  <text
     xml:space="preserve"
     style="font-size:9.60000038px;font-style:normal;font-weight:normal;line-height:125%;letter-spacing:0px;word-spacing:0px;fill:#000000;fill-opacity:1;stroke:none;font-family:Sans"
     x="233.99843"
     y="224.76904"
     id="text3145-4"
     sodipodi:linespacing="125%"><tspan
       sodipodi:role="line"
       id="tspan3147-0"
       x="233.99843"
       y="224.76904">1/8&quot; Thick</tspan></text>
  <text
     xml:space="preserve"
     style="font-size:9.60000038px;font-style:normal;font-weight:normal;line-height:125%;letter-spacing:0px;word-spacing:0px;fill:#000000;fill-opacity:1;stroke:none;font-family:Sans"
     x="223.81609"
     y="39.224205"
     id="text3145-9"
     sodipodi:linespacing="125%"><tspan
       sodipodi:role="line"
       id="tspan3147-4"
       x="223.81609"
       y="39.224205">5/32&quot; Thick</tspan></text>
  <text
     xml:space="preserve"
     style="font-size:9.60000038px;font-style:normal;font-weight:normal;line-height:125%;letter-spacing:0px;word-spacing:0px;fill:#000000;fill-opacity:1;stroke:none;font-family:Sans"
     x="74.104797"
     y="408.00931"
     id="text3188"
     sodipodi:linespacing="125%"><tspan
       sodipodi:role="line"
       id="tspan3190"
       x="74.104797"
       y="408.00931">Open Source Hardware</tspan><tspan
       sodipodi:role="line"
       x="74.104797"
       y="420.00931"
       id="tspan3192">Released under the Creative Commons Attribution Share-Alike 3.0 License</tspan><tspan
       sodipodi:role="line"
       x="74.104797"
       y="432.00931"
       id="tspan3194">http://creativecommons.org/licenses/by-sa/3.0</tspan><tspan
       sodipodi:role="line"
       x="74.104797"
       y="444.00931"
       id="tspan3196">Design by SpikenzieLabs, SparkFun Electronics</tspan><tspan
       sodipodi:role="line"
       x="74.104797"
       y="456.00931"
       id="tspan3198" /></text>
  <path
     inkscape:connector-curvature="0"
     id="path3171"
     d="m 104.37101,349.77355 c 0,-2.21956 -1.79965,-4.01933 -4.01933,-4.01933 -2.220019,0 -4.019343,1.79977 -4.019343,4.01933 0,2.21957 1.799324,4.01934 4.019343,4.01934 2.21968,0 4.01933,-1.79977 4.01933,-4.01934 z"
     style="fill:none;stroke:#000000;stroke-width:0.24052736;stroke-linejoin:bevel;stroke-miterlimit:4;stroke-dasharray:none" />
  <path
     inkscape:connector-curvature="0"
     id="path3077"
     d="m 99.077562,61.925547 c 0,-2.935345 -2.37988,-5.314438 -5.314515,-5.314438 -2.935096,0 -5.314362,2.379093 -5.314362,5.314438 0,2.933805 2.379266,5.314439 5.314362,5.314439 2.934635,0 5.314515,-2.380634 5.314515,-5.314439 z"
     style="fill:none;stroke:#000000;stroke-width:0.14277706;stroke-linejoin:bevel;stroke-miterlimit:4;stroke-dasharray:none" />
  <path
     style="fill:none;stroke:#000000;stroke-width:0.14277706;stroke-linejoin:bevel;stroke-miterlimit:4;stroke-dasharray:none"
     d="m 199.8775,61.925547 c 0,-2.935345 -2.37988,-5.314438 -5.31452,-5.314438 -2.93509,0 -5.31436,2.379093 -5.31436,5.314438 0,2.933805 2.37927,5.314439 5.31436,5.314439 2.93464,0 5.31452,-2.380634 5.31452,-5.314439 z"
     id="path3079"
     inkscape:connector-curvature="0" />
  <path
     inkscape:connector-curvature="0"
     id="path3081"
     d="m 199.8775,162.72554 c 0,-2.93534 -2.37988,-5.31443 -5.31452,-5.31443 -2.93509,0 -5.31436,2.37909 -5.31436,5.31443 0,2.93381 2.37927,5.31444 5.31436,5.31444 2.93464,0 5.31452,-2.38063 5.31452,-5.31444 z"
     style="fill:none;stroke:#000000;stroke-width:0.14277706;stroke-linejoin:bevel;stroke-miterlimit:4;stroke-dasharray:none" />
  <path
     style="fill:none;stroke:#000000;stroke-width:0.14277706;stroke-linejoin:bevel;stroke-miterlimit:4;stroke-dasharray:none"
     d="m 99.077564,162.72554 c 0,-2.93534 -2.37988,-5.31443 -5.31452,-5.31443 -2.93509,0 -5.31436,2.37909 -5.31436,5.31443 0,2.93381 2.37927,5.31444 5.31436,5.31444 2.93464,0 5.31452,-2.38063 5.31452,-5.31444 z"
     id="path3085"
     inkscape:connector-curvature="0" />
  <path
     style="fill:none;stroke:#000000;stroke-width:0.14400001;stroke-linecap:square;stroke-miterlimit:4;stroke-opacity:1;stroke-dasharray:none;stroke-dashoffset:0"
     d="m 109.38707,361.29355 16.48946,17.70169 49.33934,0 25.14997,-25.26619"
     id="path3104"
     inkscape:connector-curvature="0"
     sodipodi:nodetypes="cccc" />
</svg>
